<svg width="344" height="344" viewBox="0 0 344 344" fill="none" xmlns="http://www.w3.org/2000/svg">
<path d="M116.187 77.7842V61.3401H122.952C123.986 61.3401 124.894 61.5515 125.677 61.9744C126.476 62.3816 127.095 62.961 127.533 63.7128C127.987 64.4645 128.214 65.3572 128.214 66.3908V66.7197C128.214 67.7376 127.979 68.6303 127.51 69.3977C127.055 70.1494 126.429 70.7367 125.63 71.1596C124.847 71.5668 123.954 71.7703 122.952 71.7703H119.287V77.7842H116.187ZM119.287 68.9514H122.647C123.383 68.9514 123.978 68.7478 124.432 68.3406C124.886 67.9334 125.113 67.3774 125.113 66.6727V66.4378C125.113 65.733 124.886 65.1771 124.432 64.7699C123.978 64.3627 123.383 64.1591 122.647 64.1591H119.287V68.9514ZM127.975 77.7842L132.297 61.3401H137.7L142.023 77.7842H138.828L137.935 74.1665H132.062L131.17 77.7842H127.975ZM132.791 71.3005H137.207L135.21 63.2899H134.787L132.791 71.3005ZM149.699 78.1131C148.431 78.1131 147.311 77.886 146.34 77.4318C145.369 76.9776 144.61 76.3277 144.062 75.482C143.513 74.6363 143.239 73.6183 143.239 72.4281V71.7703H146.293V72.4281C146.293 73.4148 146.599 74.1587 147.209 74.6598C147.82 75.1453 148.65 75.388 149.699 75.388C150.764 75.388 151.555 75.1766 152.072 74.7538C152.605 74.3309 152.871 73.7906 152.871 73.1329C152.871 72.6787 152.738 72.3107 152.471 72.0288C152.221 71.7469 151.845 71.5198 151.344 71.3475C150.858 71.1596 150.263 70.9873 149.559 70.8307L149.018 70.7132C147.891 70.4627 146.92 70.1494 146.105 69.7736C145.307 69.382 144.688 68.8731 144.249 68.2466C143.827 67.6202 143.615 66.8058 143.615 65.8035C143.615 64.8012 143.85 63.9477 144.32 63.2429C144.805 62.5225 145.479 61.9744 146.34 61.5985C147.217 61.207 148.243 61.0112 149.418 61.0112C150.592 61.0112 151.634 61.2148 152.542 61.622C153.466 62.0135 154.186 62.6087 154.703 63.4074C155.236 64.1904 155.502 65.1771 155.502 66.3673V67.072H152.448V66.3673C152.448 65.7409 152.323 65.2397 152.072 64.8638C151.837 64.4723 151.493 64.1904 151.038 64.0181C150.584 63.8302 150.044 63.7362 149.418 63.7362C148.478 63.7362 147.781 63.9163 147.327 64.2766C146.888 64.6211 146.669 65.0988 146.669 65.7095C146.669 66.1167 146.771 66.4613 146.974 66.7432C147.194 67.0251 147.515 67.26 147.938 67.4479C148.36 67.6358 148.901 67.8003 149.559 67.9412L150.099 68.0587C151.273 68.3093 152.291 68.6303 153.153 69.0218C154.03 69.4134 154.711 69.9302 155.196 70.5723C155.682 71.2144 155.925 72.0366 155.925 73.0389C155.925 74.0412 155.666 74.926 155.15 75.6934C154.648 76.4452 153.928 77.0403 152.988 77.4788C152.064 77.9016 150.968 78.1131 149.699 78.1131ZM163.946 78.1131C162.677 78.1131 161.557 77.886 160.587 77.4318C159.616 76.9776 158.856 76.3277 158.308 75.482C157.76 74.6363 157.486 73.6183 157.486 72.4281V71.7703H160.54V72.4281C160.54 73.4148 160.845 74.1587 161.456 74.6598C162.066 75.1453 162.897 75.388 163.946 75.388C165.011 75.388 165.802 75.1766 166.318 74.7538C166.851 74.3309 167.117 73.7906 167.117 73.1329C167.117 72.6787 166.984 72.3107 166.718 72.0288C166.467 71.7469 166.091 71.5198 165.59 71.3475C165.105 71.1596 164.51 70.9873 163.805 70.8307L163.265 70.7132C162.137 70.4627 161.166 70.1494 160.352 69.7736C159.553 69.382 158.934 68.8731 158.496 68.2466C158.073 67.6202 157.861 66.8058 157.861 65.8035C157.861 64.8012 158.096 63.9477 158.566 63.2429C159.052 62.5225 159.725 61.9744 160.587 61.5985C161.464 61.207 162.489 61.0112 163.664 61.0112C164.838 61.0112 165.88 61.2148 166.788 61.622C167.712 62.0135 168.433 62.6087 168.949 63.4074C169.482 64.1904 169.748 65.1771 169.748 66.3673V67.072H166.694V66.3673C166.694 65.7409 166.569 65.2397 166.318 64.8638C166.084 64.4723 165.739 64.1904 165.285 64.0181C164.831 63.8302 164.29 63.7362 163.664 63.7362C162.724 63.7362 162.027 63.9163 161.573 64.2766C161.135 64.6211 160.915 65.0988 160.915 65.7095C160.915 66.1167 161.017 66.4613 161.221 66.7432C161.44 67.0251 161.761 67.26 162.184 67.4479C162.607 67.6358 163.147 67.8003 163.805 67.9412L164.345 68.0587C165.52 68.3093 166.538 68.6303 167.399 69.0218C168.276 69.4134 168.957 69.9302 169.443 70.5723C169.928 71.2144 170.171 72.0366 170.171 73.0389C170.171 74.0412 169.913 74.926 169.396 75.6934C168.895 76.4452 168.174 77.0403 167.235 77.4788C166.311 77.9016 165.214 78.1131 163.946 78.1131ZM172.484 77.7842V61.3401H179.249C180.283 61.3401 181.191 61.5515 181.974 61.9744C182.773 62.3816 183.392 62.961 183.83 63.7128C184.284 64.4645 184.511 65.3572 184.511 66.3908V66.7197C184.511 67.7376 184.276 68.6303 183.807 69.3977C183.352 70.1494 182.726 70.7367 181.927 71.1596C181.144 71.5668 180.252 71.7703 179.249 71.7703H175.585V77.7842H172.484ZM175.585 68.9514H178.944C179.68 68.9514 180.275 68.7478 180.729 68.3406C181.183 67.9334 181.41 67.3774 181.41 66.6727V66.4378C181.41 65.733 181.183 65.1771 180.729 64.7699C180.275 64.3627 179.68 64.1591 178.944 64.1591H175.585V68.9514ZM193.051 78.1131C190.984 78.1131 189.339 77.5493 188.118 76.4217C186.896 75.2784 186.285 73.6497 186.285 71.5354V67.5889C186.285 65.4746 186.896 63.8537 188.118 62.7261C189.339 61.5829 190.984 61.0112 193.051 61.0112C195.118 61.0112 196.763 61.5829 197.984 62.7261C199.206 63.8537 199.816 65.4746 199.816 67.5889V71.5354C199.816 73.6497 199.206 75.2784 197.984 76.4217C196.763 77.5493 195.118 78.1131 193.051 78.1131ZM193.051 75.3411C194.21 75.3411 195.11 75.0043 195.752 74.3309C196.395 73.6575 196.716 72.757 196.716 71.6294V67.4949C196.716 66.3673 196.395 65.4668 195.752 64.7934C195.11 64.1199 194.21 63.7832 193.051 63.7832C191.908 63.7832 191.007 64.1199 190.349 64.7934C189.707 65.4668 189.386 66.3673 189.386 67.4949V71.6294C189.386 72.757 189.707 73.6575 190.349 74.3309C191.007 75.0043 191.908 75.3411 193.051 75.3411ZM202.536 77.7842V61.3401H209.678C210.711 61.3401 211.612 61.5202 212.379 61.8804C213.147 62.2406 213.742 62.7496 214.165 63.4074C214.587 64.0651 214.799 64.8403 214.799 65.733V66.0149C214.799 67.0016 214.564 67.8003 214.094 68.4111C213.624 69.0218 213.045 69.4682 212.356 69.7501V70.1729C212.982 70.2042 213.468 70.4235 213.812 70.8307C214.157 71.2222 214.329 71.7469 214.329 72.4046V77.7842H211.228V72.851C211.228 72.4751 211.126 72.1697 210.923 71.9348C210.735 71.6999 210.414 71.5824 209.96 71.5824H205.637V77.7842H202.536ZM205.637 68.7634H209.349C210.085 68.7634 210.657 68.5677 211.064 68.1761C211.487 67.769 211.698 67.2365 211.698 66.5787V66.3438C211.698 65.686 211.494 65.1614 211.087 64.7699C210.68 64.3627 210.101 64.1591 209.349 64.1591H205.637V68.7634ZM220.909 77.7842V64.1591H216.117V61.3401H228.803V64.1591H224.01V77.7842H220.909Z" fill="white"/>
<path d="M110.107 280.979L114.43 264.535H119.833L124.155 280.979H120.96L120.068 277.362H114.195L113.302 280.979H110.107ZM114.923 274.496H119.339L117.343 266.485H116.92L114.923 274.496ZM132.237 281.308C130.89 281.308 129.731 281.066 128.76 280.58C127.805 280.079 127.069 279.374 126.552 278.466C126.051 277.542 125.8 276.453 125.8 275.201V264.535H128.901V275.295C128.901 276.297 129.183 277.088 129.747 277.667C130.326 278.247 131.156 278.536 132.237 278.536C133.318 278.536 134.14 278.247 134.704 277.667C135.283 277.088 135.573 276.297 135.573 275.295V264.535H138.674V275.201C138.674 276.453 138.415 277.542 137.898 278.466C137.397 279.374 136.661 280.079 135.69 280.58C134.735 281.066 133.584 281.308 132.237 281.308ZM145.483 280.979V267.354H140.691V264.535H153.376V267.354H148.584V280.979H145.483ZM155.488 280.979V264.535H158.589V271.324H164.697V264.535H167.798V280.979H164.697V274.143H158.589V280.979H155.488ZM177.294 281.308C175.227 281.308 173.582 280.745 172.361 279.617C171.139 278.474 170.528 276.845 170.528 274.731V270.784C170.528 268.67 171.139 267.049 172.361 265.921C173.582 264.778 175.227 264.207 177.294 264.207C179.361 264.207 181.006 264.778 182.227 265.921C183.449 267.049 184.06 268.67 184.06 270.784V274.731C184.06 276.845 183.449 278.474 182.227 279.617C181.006 280.745 179.361 281.308 177.294 281.308ZM177.294 278.536C178.453 278.536 179.353 278.2 179.996 277.526C180.638 276.853 180.959 275.952 180.959 274.825V270.69C180.959 269.563 180.638 268.662 179.996 267.989C179.353 267.315 178.453 266.979 177.294 266.979C176.151 266.979 175.25 267.315 174.592 267.989C173.95 268.662 173.629 269.563 173.629 270.69V274.825C173.629 275.952 173.95 276.853 174.592 277.526C175.25 278.2 176.151 278.536 177.294 278.536ZM186.779 280.979V264.535H193.921C194.954 264.535 195.855 264.716 196.622 265.076C197.39 265.436 197.985 265.945 198.408 266.603C198.831 267.26 199.042 268.036 199.042 268.928V269.21C199.042 270.197 198.807 270.996 198.337 271.606C197.867 272.217 197.288 272.663 196.599 272.945V273.368C197.225 273.4 197.711 273.619 198.055 274.026C198.4 274.418 198.572 274.942 198.572 275.6V280.979H195.471V276.046C195.471 275.67 195.37 275.365 195.166 275.13C194.978 274.895 194.657 274.778 194.203 274.778H189.88V280.979H186.779ZM189.88 271.959H193.592C194.328 271.959 194.9 271.763 195.307 271.371C195.73 270.964 195.941 270.432 195.941 269.774V269.539C195.941 268.881 195.738 268.357 195.33 267.965C194.923 267.558 194.344 267.354 193.592 267.354H189.88V271.959ZM201.622 280.979V264.535H204.723V280.979H201.622ZM211.622 280.979V267.354H206.83V264.535H219.515V267.354H214.723V280.979H211.622ZM225.855 280.979V275.318L220.264 264.535H223.717L227.194 271.583H227.617L231.094 264.535H234.547L228.956 275.318V280.979H225.855Z" fill="white"/>
<path fill-rule="evenodd" clip-rule="evenodd" d="M179.374 89.1138L175.602 87.0013V91.4857H175.343V87.1125L171.571 89.2991L167.725 87.0383V95.8219L163.953 98.0086L167.873 100.306L167.762 100.529L163.842 98.268L163.805 102.604L167.688 104.865L171.571 102.641V98.0086L175.602 95.6737V100.269L179.374 98.1568V89.1138Z" fill="#DCE0DF"/>
<path fill-rule="evenodd" clip-rule="evenodd" d="M175.343 96.081L171.682 98.2306L175.343 96.081Z" fill="#DCE0DF"/>
<path fill-rule="evenodd" clip-rule="evenodd" d="M171.682 98.2306L175.343 100.343V96.081L171.682 98.2306Z" fill="#DCE0DF"/>
<path fill-rule="evenodd" clip-rule="evenodd" d="M175.343 86.8529L171.571 84.6662L167.836 86.8529L171.571 89.0395L175.343 86.8529Z" fill="#DCE0DF"/>
<path d="M184.256 94.7461H252.597" stroke="#DCE0DF" stroke-width="1.67797" stroke-miterlimit="10"/>
<path d="M90.6191 94.7461H158.961" stroke="#DCE0DF" stroke-width="1.67797" stroke-miterlimit="10"/>
<path fill-rule="evenodd" clip-rule="evenodd" d="M179.337 241.808L175.602 239.695L175.565 244.18H175.306V239.806L171.571 241.993L167.688 239.732V248.553L163.953 250.74L167.873 253L167.762 253.223L163.805 250.962V255.298L167.688 257.559L171.571 255.372V250.703L175.602 248.368V252.963L179.374 250.851L179.337 241.808Z" fill="#DCE0DF"/>
<path fill-rule="evenodd" clip-rule="evenodd" d="M175.343 248.775L171.682 250.924L175.343 248.775Z" fill="#DCE0DF"/>
<path fill-rule="evenodd" clip-rule="evenodd" d="M171.682 250.924L175.343 253.037V248.812L171.682 250.924Z" fill="#DCE0DF"/>
<path fill-rule="evenodd" clip-rule="evenodd" d="M175.306 239.547L171.571 237.36L167.799 239.547L171.571 241.733L175.306 239.547Z" fill="#DCE0DF"/>
<path d="M184.219 247.479H252.56" stroke="#DCE0DF" stroke-width="1.67797" stroke-miterlimit="10"/>
<path d="M90.6191 247.479H158.924" stroke="#DCE0DF" stroke-width="1.67797" stroke-miterlimit="10"/>
<path d="M25.0436 87.1547L172 2.3094L318.956 87.1547V256.845L172 341.691L25.0436 256.845V87.1547Z" stroke="white" stroke-width="4"/>
<path fill-rule="evenodd" clip-rule="evenodd" d="M156.465 141.419L171.81 150.366L186.674 141.686L186.718 159.002L187.731 159.014L187.784 141.208L202.664 149.619L202.765 185.381L187.797 193.751L187.784 175.566L171.81 184.862V203.226L156.391 212L141 203.062L141.056 185.85L156.702 194.823L157.165 193.93L141.63 184.9L156.483 176.232L156.465 141.419Z" fill="white"/>
<path fill-rule="evenodd" clip-rule="evenodd" d="M156.465 141.419L156.483 176.232L141.63 184.9L157.165 193.93L156.702 194.823L141.056 185.85L141 203.062L156.391 212L171.81 203.226V184.862L187.784 175.566L187.797 193.751L202.765 185.381L202.664 149.619L187.784 141.208L187.731 159.014L186.718 159.002L186.674 141.686L171.81 150.366L156.465 141.419Z" fill="white"/>
<path fill-rule="evenodd" clip-rule="evenodd" d="M172.282 185.681L186.794 194.079ZM186.749 177.212C186.755 177.209 186.764 177.209 186.77 177.212C186.777 177.216 186.781 177.223 186.781 177.231L186.794 194.079L186.738 177.268L172.282 185.681L186.77 177.212L186.794 194.079L172.282 185.681" fill="white"/>
<path fill-rule="evenodd" clip-rule="evenodd" d="M171.81 149.299L156.933 140.624L171.803 132L186.674 140.619" fill="white"/>
</svg>
